<svg width="72" height="12" viewBox="0 0 72 12" fill="none" xmlns="http://www.w3.org/2000/svg">
<g clip-path="url(#clip0_151_1569)">
<path d="M2.50732 11.5229C2.3846 11.5229 2.26275 11.4819 2.15875 11.4014C2.06417 11.328 1.99179 11.2265 1.95064 11.1094C1.90948 10.9923 1.90135 10.8649 1.92727 10.7429L2.6478 7.34226L0.204216 5.04629C0.116332 4.96413 0.052935 4.85609 0.0219122 4.73563C-0.00911058 4.61516 -0.00638962 4.48758 0.0297365 4.36876C0.065641 4.25 0.133287 4.14515 0.224289 4.06719C0.31529 3.98924 0.425644 3.94162 0.541668 3.93023L3.77481 3.61572L5.05311 0.410621C5.14732 0.175138 5.36197 0.0230713 5.60048 0.0230713C5.83899 0.0230713 6.05363 0.175138 6.14789 0.410082L7.42615 3.61572L10.6588 3.93019C10.8968 3.95316 11.0975 4.12575 11.1712 4.36874C11.245 4.61174 11.1768 4.87826 10.9972 5.04626L8.55359 7.34182L9.27413 10.7424C9.32693 10.9924 9.23635 11.251 9.04273 11.4009C8.84952 11.5509 8.59187 11.5624 8.38843 11.4314L5.60048 9.64635L2.81255 11.4324C2.71829 11.4924 2.61326 11.5229 2.50732 11.5229Z" fill="black"/>
</g>
<g clip-path="url(#clip1_151_1569)">
<path d="M17.7073 11.5229C17.5845 11.5229 17.4627 11.4819 17.3587 11.4014C17.2641 11.328 17.1917 11.2265 17.1506 11.1094C17.1094 10.9923 17.1013 10.8649 17.1272 10.7429L17.8478 7.34226L15.4042 5.04629C15.3163 4.96413 15.2529 4.85609 15.2219 4.73563C15.1908 4.61516 15.1936 4.48758 15.2297 4.36876C15.2656 4.25 15.3332 4.14515 15.4242 4.06719C15.5152 3.98924 15.6256 3.94162 15.7416 3.93023L18.9748 3.61572L20.2531 0.410621C20.3473 0.175138 20.5619 0.0230713 20.8004 0.0230713C21.0389 0.0230713 21.2536 0.175138 21.3478 0.410082L22.6261 3.61572L25.8587 3.93019C26.0968 3.95316 26.2974 4.12575 26.3712 4.36874C26.4449 4.61174 26.3767 4.87826 26.1971 5.04626L23.7535 7.34182L24.4741 10.7424C24.5269 10.9924 24.4363 11.251 24.2427 11.4009C24.0495 11.5509 23.7918 11.5624 23.5884 11.4314L20.8004 9.64635L18.0125 11.4324C17.9182 11.4924 17.8132 11.5229 17.7073 11.5229Z" fill="black"/>
</g>
<g clip-path="url(#clip2_151_1569)">
<path d="M32.9073 11.5229C32.7846 11.5229 32.6628 11.4819 32.5588 11.4014C32.4642 11.328 32.3918 11.2265 32.3507 11.1094C32.3095 10.9923 32.3014 10.8649 32.3273 10.7429L33.0478 7.34226L30.6042 5.04629C30.5164 4.96413 30.453 4.85609 30.4219 4.73563C30.3909 4.61516 30.3936 4.48758 30.4298 4.36876C30.4657 4.25 30.5333 4.14515 30.6243 4.06719C30.7153 3.98924 30.8257 3.94162 30.9417 3.93023L34.1748 3.61572L35.4531 0.410621C35.5473 0.175138 35.762 0.0230713 36.0005 0.0230713C36.239 0.0230713 36.4537 0.175138 36.5479 0.410082L37.8262 3.61572L41.0588 3.93019C41.2969 3.95316 41.4975 4.12575 41.5712 4.36874C41.645 4.61174 41.5768 4.87826 41.3972 5.04626L38.9536 7.34182L39.6742 10.7424C39.727 10.9924 39.6364 11.251 39.4428 11.4009C39.2495 11.5509 38.9919 11.5624 38.7885 11.4314L36.0005 9.64635L33.2126 11.4324C33.1183 11.4924 33.0133 11.5229 32.9073 11.5229Z" fill="black"/>
</g>
<g clip-path="url(#clip3_151_1569)">
<path d="M48.1073 11.5229C47.9846 11.5229 47.8627 11.4819 47.7587 11.4014C47.6641 11.328 47.5918 11.2265 47.5506 11.1094C47.5095 10.9923 47.5013 10.8649 47.5272 10.7429L48.2478 7.34225L45.8042 5.04628C45.7163 4.96412 45.6529 4.85608 45.6219 4.73562C45.5909 4.61515 45.5936 4.48757 45.6297 4.36875C45.6656 4.24999 45.7333 4.14514 45.8243 4.06719C45.9153 3.98923 46.0256 3.94161 46.1416 3.93022L49.3748 3.61571L50.6531 0.41062C50.7473 0.175138 50.9619 0.0230713 51.2005 0.0230713C51.439 0.0230713 51.6536 0.175138 51.7479 0.410081L53.0261 3.61571L56.2588 3.93018C56.4968 3.95315 56.6975 4.12575 56.7712 4.36873C56.845 4.61173 56.7767 4.87825 56.5971 5.04625L54.1536 7.3418L54.8741 10.7423C54.9269 10.9924 54.8363 11.2509 54.6427 11.4009C54.4495 11.5509 54.1918 11.5624 53.9884 11.4314L51.2005 9.64633L48.4125 11.4324C48.3183 11.4924 48.2132 11.5229 48.1073 11.5229ZM51.2005 8.87737C51.3064 8.87737 51.4113 8.90784 51.5057 8.96782L54.1368 10.6539L53.4568 7.44425C53.433 7.33207 53.438 7.21508 53.4711 7.10567C53.5043 6.99625 53.5645 6.8985 53.6454 6.82277L55.9527 4.65474L52.9001 4.35776C52.7927 4.34745 52.6899 4.30604 52.6027 4.23794C52.5156 4.16985 52.4474 4.07764 52.4054 3.97119L51.2005 0.946603L49.9941 3.97164C49.9091 4.18715 49.7201 4.33521 49.5008 4.35673L46.4478 4.65374L48.755 6.82176C48.9203 6.97678 48.9926 7.21482 48.9436 7.44381L48.2641 10.6533L50.8952 8.96782C50.9895 8.90784 51.0945 8.87737 51.2005 8.87737ZM49.3501 3.67768C49.3501 3.67768 49.3501 3.67822 49.3496 3.67869L49.3501 3.67768ZM53.0499 3.6762L53.0504 3.67721C53.0504 3.67667 53.0504 3.67667 53.0499 3.6762H53.0499Z" fill="black"/>
</g>
<g clip-path="url(#clip4_151_1569)">
<path d="M63.3074 11.5229C63.1846 11.5229 63.0628 11.4819 62.9588 11.4014C62.8642 11.328 62.7918 11.2265 62.7507 11.1094C62.7095 10.9923 62.7014 10.8649 62.7273 10.7429L63.4479 7.34225L61.0043 5.04628C60.9164 4.96412 60.853 4.85608 60.822 4.73562C60.7909 4.61515 60.7937 4.48757 60.8298 4.36875C60.8657 4.24999 60.9333 4.14514 61.0243 4.06719C61.1153 3.98923 61.2257 3.94161 61.3417 3.93022L64.5749 3.61571L65.8532 0.41062C65.9474 0.175138 66.162 0.0230713 66.4005 0.0230713C66.639 0.0230713 66.8537 0.175138 66.9479 0.410081L68.2262 3.61571L71.4588 3.93018C71.6969 3.95315 71.8975 4.12575 71.9713 4.36873C72.045 4.61173 71.9768 4.87825 71.7972 5.04625L69.3536 7.3418L70.0742 10.7423C70.127 10.9924 70.0364 11.2509 69.8428 11.4009C69.6496 11.5509 69.3919 11.5624 69.1885 11.4314L66.4005 9.64633L63.6126 11.4324C63.5183 11.4924 63.4133 11.5229 63.3074 11.5229ZM66.4005 8.87737C66.5065 8.87737 66.6114 8.90784 66.7058 8.96782L69.3369 10.6539L68.6569 7.44425C68.6331 7.33207 68.638 7.21508 68.6712 7.10567C68.7044 6.99625 68.7646 6.8985 68.8454 6.82277L71.1527 4.65474L68.1001 4.35776C67.9927 4.34745 67.8899 4.30604 67.8028 4.23794C67.7157 4.16985 67.6475 4.07764 67.6055 3.97119L66.4005 0.946603L65.1941 3.97164C65.1092 4.18715 64.9202 4.33521 64.7009 4.35673L61.6479 4.65374L63.9551 6.82176C64.1203 6.97678 64.1926 7.21482 64.1437 7.44381L63.4642 10.6533L66.0953 8.96782C66.1896 8.90784 66.2946 8.87737 66.4005 8.87737ZM64.5502 3.67768C64.5502 3.67768 64.5502 3.67822 64.5497 3.67869L64.5502 3.67768ZM68.25 3.6762L68.2505 3.67721C68.2505 3.67667 68.2505 3.67667 68.25 3.6762H68.25Z" fill="black"/>
</g>
<defs>
<clipPath id="clip0_151_1569">
<rect width="11.2" height="12" fill="white" transform="translate(0.000488281)"/>
</clipPath>
<clipPath id="clip1_151_1569">
<rect width="11.2" height="12" fill="white" transform="translate(15.2004)"/>
</clipPath>
<clipPath id="clip2_151_1569">
<rect width="11.2" height="12" fill="white" transform="translate(30.4005)"/>
</clipPath>
<clipPath id="clip3_151_1569">
<rect width="11.2" height="12" fill="white" transform="translate(45.6005)"/>
</clipPath>
<clipPath id="clip4_151_1569">
<rect width="11.2" height="12" fill="white" transform="translate(60.8005)"/>
</clipPath>
</defs>
</svg>
