<svg width="30" height="31" viewBox="0 0 30 31" fill="none" xmlns="http://www.w3.org/2000/svg">
<g clip-path="url(#clip0_140_811)">
<path d="M15 9.65677C11.9864 9.65677 9.5455 12.0977 9.5455 15.1113C9.5455 18.1249 11.9864 20.5659 15 20.5659C18.0137 20.5659 20.4546 18.125 20.4546 15.1114C20.4546 12.0978 18.0136 9.65677 15 9.65677ZM27.1909 13.7477C26.5636 8.06131 22.05 3.54769 16.3636 2.92044V0.111328H13.6364V2.92044C7.94998 3.54769 3.43637 8.06131 2.80911 13.7477H0V16.475H2.80911C3.43637 22.1613 7.95005 26.675 13.6364 27.3023V30.1114H16.3636V27.3023C22.05 26.675 26.5636 22.1613 27.1909 16.475H30.0001V13.7477H27.1909ZM15 24.6568C9.7296 24.6568 5.45459 20.3818 5.45459 15.1114C5.45459 9.84092 9.7296 5.56592 15 5.56592C20.2705 5.56592 24.5455 9.84086 24.5455 15.1114C24.5455 20.3819 20.2705 24.6568 15 24.6568Z" fill="white"/>
</g>
<defs>
<clipPath id="clip0_140_811">
<rect width="30" height="30" fill="white" transform="translate(0 0.111328)"/>
</clipPath>
</defs>
</svg>
