<svg width="30" height="31" viewBox="0 0 30 31" fill="none" xmlns="http://www.w3.org/2000/svg">
<path d="M20.6297 22.531C21.0206 23.1732 21.1378 23.9279 20.9597 24.6582C20.8732 25.0176 20.7163 25.3562 20.4981 25.6546C20.2799 25.9529 20.0047 26.205 19.6884 26.3963L17.3597 27.8138C16.9217 28.081 16.4186 28.2224 15.9056 28.2226C15.4519 28.2226 14.9944 28.1129 14.5697 27.8916C9.67968 25.3557 6.8878 21.5897 5.65874 19.5713C2.9353 15.0976 2.36343 10.6894 2.36249 7.78037C2.36249 6.79974 2.86686 5.90537 3.71249 5.38974L6.04218 3.97224C6.3572 3.77906 6.70748 3.6504 7.07265 3.59375C7.43782 3.5371 7.81061 3.55358 8.16936 3.64224C8.89874 3.81943 9.51655 4.27037 9.90655 4.91255L11.3691 7.31443C11.756 7.95192 11.8744 8.71688 11.6981 9.4415C11.5218 10.1661 11.0653 10.7912 10.4287 11.1797L9.22218 11.9138C8.8603 12.1341 8.68405 12.5766 8.80499 12.9647C9.60636 15.554 11.0364 17.9046 12.9675 19.8066C13.1158 19.9492 13.3076 20.0381 13.5123 20.0592C13.717 20.0802 13.9229 20.0323 14.0972 19.9229L15.3028 19.1888C15.9401 18.8015 16.7051 18.6829 17.4298 18.859C18.1544 19.0351 18.7796 19.4916 19.1681 20.1282L20.6306 22.531H20.6297ZM15.0834 11.2622C16.0657 11.4151 16.9473 11.9513 17.5348 12.7533C18.1223 13.5552 18.3678 14.5574 18.2175 15.5401C18.1987 15.6618 18.2041 15.786 18.2333 15.9056C18.2625 16.0252 18.315 16.1379 18.3878 16.2372C18.4606 16.3365 18.5522 16.4206 18.6575 16.4845C18.7627 16.5484 18.8795 16.591 19.0012 16.6097C19.1229 16.6285 19.2471 16.6231 19.3668 16.5939C19.4864 16.5647 19.5991 16.5122 19.6984 16.4394C19.7977 16.3666 19.8818 16.275 19.9457 16.1697C20.0096 16.0645 20.0522 15.9477 20.0709 15.826C20.2967 14.3519 19.9286 12.8485 19.0474 11.6455C18.1662 10.4425 16.8438 9.63813 15.3703 9.4088C15.1272 9.37641 14.8812 9.44054 14.6848 9.58743C14.4885 9.73433 14.3575 9.9523 14.32 10.1946C14.2825 10.4369 14.3414 10.6843 14.4841 10.8837C14.6268 11.0831 14.842 11.2187 15.0834 11.2613V11.2622ZM15.9412 5.70287C15.7004 5.67555 15.4584 5.74247 15.2658 5.88961C15.0732 6.03675 14.945 6.2527 14.908 6.49224C14.8711 6.73178 14.9282 6.97633 15.0675 7.17467C15.2068 7.37301 15.4174 7.50977 15.6553 7.5563C17.6353 7.86193 19.3772 8.92037 20.5612 10.5366C21.7453 12.1529 22.229 14.1329 21.9234 16.1129C21.8961 16.3537 21.963 16.5958 22.1102 16.7883C22.2573 16.9809 22.4733 17.1091 22.7128 17.1461C22.9523 17.1831 23.1969 17.1259 23.3952 16.9866C23.5936 16.8473 23.7303 16.6367 23.7769 16.3988C24.1594 13.9238 23.5547 11.4488 22.0744 9.42849C20.594 7.40818 18.4162 6.08537 15.9412 5.70287ZM16.5131 1.99693C16.2674 1.95973 16.017 2.02128 15.8166 2.16814C15.6162 2.315 15.482 2.53521 15.4434 2.78068C15.3647 3.29162 15.7153 3.77068 16.2272 3.85037C22.3575 4.7963 26.5753 10.5535 25.6294 16.6847C25.602 16.9256 25.669 17.1676 25.8161 17.3602C25.9632 17.5528 26.1792 17.681 26.4187 17.718C26.6583 17.7549 26.9028 17.6978 27.1012 17.5585C27.2995 17.4192 27.4363 17.2085 27.4828 16.9707C28.5872 9.81849 23.6662 3.10224 16.5131 1.99787V1.99693Z" fill="white"/>
</svg>
