<svg width="26" height="26" viewBox="0 0 26 26" fill="none" xmlns="http://www.w3.org/2000/svg">
<path d="M21.8128 23.5427L18.1494 19.943C18.8034 19.4221 19.396 18.8285 19.9158 18.1737L23.565 21.7596C24.0561 22.2421 24.0631 23.0362 23.5805 23.5272C23.098 24.0183 22.3039 24.0252 21.8128 23.5427ZM2.06204 11.3675C2.06204 6.24917 6.21121 2.1 11.3295 2.1C16.4478 2.1 20.597 6.24917 20.597 11.3675C20.597 16.4858 16.4478 20.6349 11.3295 20.6349C6.21121 20.6349 2.06204 16.4858 2.06204 11.3675ZM18.1888 11.3674C18.1888 7.57917 15.1178 4.50815 11.3295 4.50815C7.54125 4.50815 4.47022 7.57917 4.47022 11.3674C4.47022 15.1557 7.5412 18.2267 11.3295 18.2267C15.1177 18.2267 18.1888 15.1557 18.1888 11.3674Z" fill="black" stroke="black" stroke-width="0.2"/>
</svg>
