<svg width="30" height="31" viewBox="0 0 30 31" fill="none" xmlns="http://www.w3.org/2000/svg">
<path d="M20.7442 2.58691H9.25661C5.51786 2.58691 2.47626 5.62852 2.47626 9.36727V20.855C2.47626 24.5936 5.51786 27.6352 9.25661 27.6352H20.7444C24.4829 27.6352 27.5245 24.5936 27.5245 20.855V9.36727C27.5245 5.62852 24.4829 2.58691 20.7442 2.58691ZM26.0561 20.855C26.0561 23.7839 23.6732 26.1667 20.7442 26.1667H9.25661C6.32758 26.1667 3.94471 23.7839 3.94471 20.855V9.36727C3.94471 6.43823 6.32758 4.05537 9.25661 4.05537H20.7444C23.6732 4.05537 26.0561 6.43823 26.0561 9.36727V20.855Z" fill="white" stroke="white" stroke-width="0.517857"/>
<path d="M15.0004 8.26148C11.2239 8.26148 8.15149 11.3338 8.15149 15.1104C8.15149 18.8871 11.2238 21.9594 15.0004 21.9594C18.7771 21.9594 21.8494 18.8871 21.8494 15.1104C21.8494 11.3338 18.7771 8.26148 15.0004 8.26148ZM15.0004 20.4909C12.0338 20.4909 9.61995 18.0773 9.61995 15.1104C9.61995 12.1438 12.0338 9.72994 15.0004 9.72994C17.9674 9.72994 20.3809 12.1438 20.3809 15.1104C20.3809 18.0773 17.9674 20.4909 15.0004 20.4909ZM22.0132 5.8291C20.8971 5.8291 19.9894 6.73705 19.9894 7.85288C19.9894 8.96895 20.8971 9.87685 22.0132 9.87685C23.1293 9.87685 24.0371 8.96895 24.0371 7.85293C24.0371 6.73691 23.1292 5.8291 22.0132 5.8291ZM22.0132 8.40825C21.707 8.40825 21.4578 8.15904 21.4578 7.85288C21.4578 7.54658 21.707 7.29756 22.0132 7.29756C22.3195 7.29756 22.5687 7.54658 22.5687 7.85288C22.5687 8.15904 22.3195 8.40825 22.0132 8.40825Z" fill="white" stroke="white" stroke-width="0.517857"/>
</svg>
